<svg width="24" height="25" viewBox="0 0 24 25" fill="none" xmlns="http://www.w3.org/2000/svg">
<g clip-path="url(#clip0_4_60)">
<path d="M13.5 1.90704V2.72047C13.5 3.24801 13.8413 3.70479 14.329 3.84674C17.9627 4.90401 20.625 8.37491 20.625 12.5C20.625 17.4653 16.7674 21.4844 12 21.4844C7.23332 21.4844 3.37499 17.4661 3.37499 12.5C3.37499 8.3755 6.03684 4.90411 9.67087 3.84674C10.1587 3.70479 10.5 3.24791 10.5 2.72032V1.90743C10.5 1.14039 9.80465 0.581601 9.09159 0.772958C4.05951 2.12315 0.346586 6.89483 0.375133 12.565C0.408883 19.257 5.60062 24.6234 12.025 24.6093C18.4338 24.5953 23.625 19.1791 23.625 12.5C23.625 6.85387 19.9153 2.11041 14.8964 0.769735C14.188 0.580526 13.5 1.14532 13.5 1.90704Z" fill="#54656F"/>
</g>
<defs>
<clipPath id="clip0_4_60">
<rect width="24" height="25" fill="white"/>
</clipPath>
</defs>
</svg>
