<svg width="18" height="24" viewBox="0 0 18 24" fill="none" xmlns="http://www.w3.org/2000/svg">
<path d="M9 16.5C11.4853 16.5 13.5 14.4853 13.5 12V4.5C13.5 2.01469 11.4853 0 9 0C6.51469 0 4.5 2.01469 4.5 4.5V12C4.5 14.4853 6.51469 16.5 9 16.5ZM16.5 9H15.75C15.3356 9 15 9.33562 15 9.75V12C15 15.5063 11.977 18.3197 8.40047 17.9709C5.28328 17.6667 3 14.8645 3 11.7328V9.75C3 9.33562 2.66438 9 2.25 9H1.5C1.08562 9 0.75 9.33562 0.75 9.75V11.6325C0.75 15.8344 3.74859 19.5802 7.875 20.1492V21.75H5.25C4.83562 21.75 4.5 22.0856 4.5 22.5V23.25C4.5 23.6644 4.83562 24 5.25 24H12.75C13.1644 24 13.5 23.6644 13.5 23.25V22.5C13.5 22.0856 13.1644 21.75 12.75 21.75H10.125V20.167C14.1427 19.6158 17.25 16.1672 17.25 12V9.75C17.25 9.33562 16.9144 9 16.5 9Z" fill="black"/>
</svg>
