<svg width="26" height="30" viewBox="0 0 26 30" fill="none" xmlns="http://www.w3.org/2000/svg">
<path d="M2.53827 27.0963C-0.722334 23.5917 -0.661563 17.9403 2.61561 14.4486L14.321 1.9764C16.794 -0.658685 20.8138 -0.658918 23.287 1.9764C25.7362 4.58603 25.7392 8.79659 23.287 11.4093L13.0834 22.2708C11.4173 24.0458 8.69535 24.0211 7.05757 22.2127C5.47973 20.4706 5.53034 17.7093 7.1386 15.9957L15.16 7.46038C15.5049 7.09336 16.0702 7.08708 16.4226 7.44637L17.6983 8.74724C18.0507 9.10659 18.0567 9.69543 17.7118 10.0625L9.69122 18.597C9.416 18.8902 9.39904 19.3775 9.65506 19.6603C9.89904 19.9296 10.2826 19.9341 10.5305 19.6699L20.7341 8.80845C21.8286 7.64227 21.8286 5.74361 20.7335 4.57679C19.6627 3.4359 17.9457 3.43532 16.8745 4.57679L5.16907 17.0489C3.22917 19.1159 3.19926 22.4618 5.10261 24.5076C7.00049 26.5475 10.0683 26.55 11.9697 24.5242L21.5712 14.2936C21.9159 13.9263 22.4812 13.9196 22.8339 14.2787L24.1105 15.5787C24.4631 15.9378 24.4695 16.5266 24.1248 16.8939L14.5232 27.1244C11.1986 30.6667 5.82102 30.6247 2.53827 27.0963Z" fill="#54656F"/>
</svg>
