<svg width="25" height="27" viewBox="0 0 25 27" fill="none" xmlns="http://www.w3.org/2000/svg">
<path d="M12.5 0C5.59476 0 0 5.82787 0 13.0208C0 20.2138 5.59476 26.0417 12.5 26.0417C19.4052 26.0417 25 20.2138 25 13.0208C25 5.82787 19.4052 0 12.5 0ZM16.5323 8.82056C17.4244 8.82056 18.1452 9.57136 18.1452 10.5007C18.1452 11.43 17.4244 12.1808 16.5323 12.1808C15.6401 12.1808 14.9194 11.43 14.9194 10.5007C14.9194 9.57136 15.6401 8.82056 16.5323 8.82056ZM8.46774 8.82056C9.35988 8.82056 10.0806 9.57136 10.0806 10.5007C10.0806 11.43 9.35988 12.1808 8.46774 12.1808C7.5756 12.1808 6.85484 11.43 6.85484 10.5007C6.85484 9.57136 7.5756 8.82056 8.46774 8.82056ZM18.2863 17.7566C16.8498 19.5523 14.7429 20.5813 12.5 20.5813C10.2571 20.5813 8.1502 19.5523 6.71371 17.7566C6.02823 16.9008 7.26815 15.8298 7.95363 16.6803C9.08266 18.0927 10.7359 18.896 12.5 18.896C14.2641 18.896 15.9173 18.0874 17.0464 16.6803C17.7218 15.8298 18.9667 16.9008 18.2863 17.7566Z" fill="#54656F"/>
</svg>
