<svg width="7" height="25" viewBox="0 0 7 25" fill="none" xmlns="http://www.w3.org/2000/svg">
<path d="M3.375 8.59375C5.24062 8.59375 6.75 10.166 6.75 12.1094C6.75 14.0527 5.24062 15.625 3.375 15.625C1.50938 15.625 0 14.0527 0 12.1094C0 10.166 1.50938 8.59375 3.375 8.59375ZM0 3.51562C0 5.45898 1.50938 7.03125 3.375 7.03125C5.24062 7.03125 6.75 5.45898 6.75 3.51562C6.75 1.57227 5.24062 0 3.375 0C1.50938 0 0 1.57227 0 3.51562ZM0 20.7031C0 22.6465 1.50938 24.2188 3.375 24.2188C5.24062 24.2188 6.75 22.6465 6.75 20.7031C6.75 18.7598 5.24062 17.1875 3.375 17.1875C1.50938 17.1875 0 18.7598 0 20.7031Z" fill="#54656F"/>
</svg>
